<?xml version="1.0" encoding="UTF-8"?>
<svg id="Layer_1" data-name="Layer 1" xmlns="http://www.w3.org/2000/svg" viewBox="0 0 310.02 68.9">
  <defs>
    <style>
      .cls-1 {
        fill: #1c75bc;
      }
    </style>
  </defs>
  <g>
    <path class="cls-1" d="M0,25.41v18.09c0,14.03,11.38,25.41,25.41,25.41h0V0h0C11.38,0,0,11.38,0,25.41Z"/>
    <path class="cls-1" d="M65.46,17.23c0-9.51-7.71-17.23-17.23-17.23s-17.23,7.71-17.23,17.23,7.71,17.23,17.23,17.23,17.23-7.71,17.23-17.23ZM48.23,24.69c-4.11,0-7.46-3.35-7.46-7.46s3.35-7.46,7.46-7.46,7.46,3.35,7.46,7.46-3.35,7.46-7.46,7.46Z"/>
    <path class="cls-1" d="M48.23,34.45c-9.51,0-17.23,7.71-17.23,17.23s7.71,17.23,17.23,17.23,17.23-7.71,17.23-17.23-7.71-17.23-17.23-17.23ZM48.23,59.14c-4.11,0-7.46-3.35-7.46-7.46s3.35-7.46,7.46-7.46,7.46,3.35,7.46,7.46-3.35,7.46-7.46,7.46Z"/>
  </g>
  <g>
    <path class="cls-1" d="M80.72,23.69c0-1.65,1.34-2.99,2.99-2.99h9.08c7.01,0,12.69,1.75,12.69,8.36,0,2.89-1.65,6.19-4.23,7.22v.21c3.2.93,5.78,3.4,5.78,7.84,0,6.91-5.98,9.9-13.2,9.9h-10.11c-1.65,0-2.99-1.34-2.99-2.99v-27.54ZM92.58,33.8c2.89,0,4.23-1.34,4.23-3.4s-1.34-2.89-4.23-2.89h0c-1.65,0-2.99,1.34-2.99,2.99v.31c0,1.65,1.34,2.99,2.99,2.99h0ZM93.2,47.42c3.51,0,5.16-1.24,5.16-3.71s-1.65-3.4-5.16-3.4h-.62c-1.65,0-2.99,1.34-2.99,2.99v1.13c0,1.65,1.34,2.99,2.99,2.99h.62Z"/>
    <path class="cls-1" d="M112.07,38.03v-14.34c0-1.65,1.34-2.99,2.99-2.99h2.89c1.65,0,2.99,1.34,2.99,2.99v15.37c0,5.98,1.55,8.15,5.05,8.15s5.16-2.17,5.16-8.15v-15.37c0-1.65,1.34-2.99,2.99-2.99h2.58c1.65,0,2.99,1.34,2.99,2.99v14.34c0,11.45-4.33,16.81-13.72,16.81s-13.92-5.36-13.92-16.81Z"/>
    <path class="cls-1" d="M149.93,20.7h2.89c1.65,0,2.99,1.34,2.99,2.99v27.54c0,1.65-1.34,2.99-2.99,2.99h-2.89c-1.65,0-2.99-1.34-2.99-2.99v-27.54c0-1.65,1.34-2.99,2.99-2.99Z"/>
    <path class="cls-1" d="M166.23,20.7h2.89c1.65,0,2.99,1.34,2.99,2.99v20.11c0,1.65,1.34,2.99,2.99,2.99h6.71c1.65,0,2.99,1.34,2.99,2.99v1.44c0,1.65-1.34,2.99-2.99,2.99h-15.58c-1.65,0-2.99-1.34-2.99-2.99v-27.54c0-1.65,1.34-2.99,2.99-2.99Z"/>
    <path class="cls-1" d="M190.57,23.69c0-1.65,1.34-2.99,2.99-2.99h6.91c10.21,0,17.23,4.75,17.23,16.61s-7.01,16.92-16.71,16.92h-7.43c-1.65,0-2.99-1.34-2.99-2.99v-27.54ZM199.96,47.11c4.85,0,8.66-1.96,8.66-9.8s-3.82-9.49-8.66-9.49h-.52v19.29h.52Z"/>
    <path class="cls-1" d="M223.65,47.61l1.29-1.55c.95-1.14,2.57-1.39,3.85-.65,1.9,1.1,3.95,1.8,5.73,1.8,2.68,0,3.82-.88,3.82-2.37,0-1.6-1.7-2.11-4.54-3.25l-4.18-1.75c-3.61-1.44-6.76-4.49-6.76-9.33,0-5.73,5.16-10.42,12.48-10.42,2.83,0,5.88.79,8.53,2.44,1.51.94,1.85,3,.74,4.4l-.92,1.16c-.9,1.13-2.47,1.42-3.76.77-1.46-.75-2.91-1.13-4.59-1.13-2.17,0-3.51.77-3.51,2.27,0,1.6,1.91,2.17,4.95,3.35l4.07,1.6c4.18,1.65,6.55,4.54,6.55,9.18,0,5.67-4.74,10.73-13.1,10.73-3.21,0-6.77-.89-9.88-2.74-1.59-.94-1.97-3.08-.79-4.5Z"/>
    <path class="cls-1" d="M251.33,37.31c0-11.04,6.29-17.23,15.58-17.23s15.58,6.24,15.58,17.23-6.29,17.53-15.58,17.53-15.58-6.5-15.58-17.53ZM273.4,37.31c0-6.09-2.47-9.59-6.5-9.59s-6.5,3.51-6.5,9.59,2.48,9.9,6.5,9.9,6.5-3.82,6.5-9.9Z"/>
    <path class="cls-1" d="M291.46,20.7h2.89c1.65,0,2.99,1.34,2.99,2.99v20.11c0,1.65,1.34,2.99,2.99,2.99h6.7c1.65,0,2.99,1.34,2.99,2.99v1.44c0,1.65-1.34,2.99-2.99,2.99h-15.58c-1.65,0-2.99-1.34-2.99-2.99v-27.54c0-1.65,1.34-2.99,2.99-2.99Z"/>
  </g>
</svg>